<svg width="72" height="117" viewBox="0 0 72 117" fill="none" xmlns="http://www.w3.org/2000/svg">
<path d="M16.4 94V23H46.5C49.7667 23 52.7667 23.7 55.5 25.1C58.3 26.4333 60.7 28.2333 62.7 30.5C64.7 32.7 66.2667 35.2333 67.4 38.1C68.5333 40.9 69.1 43.7333 69.1 46.6C69.1 49.6 68.5667 52.5333 67.5 55.4C66.4333 58.2 64.9333 60.7 63 62.9C61.0667 65.1 58.7333 66.8667 56 68.2C53.2667 69.5333 50.2667 70.2 47 70.2H30.2V94H16.4ZM30.2 58.1H46.2C48.7333 58.1 50.8333 57.0667 52.5 55C54.2333 52.9333 55.1 50.1333 55.1 46.6C55.1 44.8 54.8333 43.2 54.3 41.8C53.7667 40.3333 53.0667 39.1 52.2 38.1C51.3333 37.1 50.3 36.3667 49.1 35.9C47.9667 35.3667 46.8 35.1 45.6 35.1H30.2V58.1Z" fill="black"/>
<line x1="3.72621" y1="71.666" x2="20.7262" y2="90.666" stroke="black" stroke-width="10"/>
<line x1="5" y1="12" x2="5" y2="75" stroke="black" stroke-width="10"/>
<line x1="38" y1="10" x2="7" y2="10" stroke="black" stroke-width="10"/>
<line x1="3.53553" y1="8.46447" x2="22.5355" y2="27.4645" stroke="black" stroke-width="10"/>
<line x1="34.5355" y1="9.46447" x2="60.5355" y2="35.4645" stroke="black" stroke-width="10"/>
</svg>
